<?xml version="1.0" encoding="utf-8"?>
<!DOCTYPE svg PUBLIC "-//W3C//DTD SVG 1.1//EN" "http://www.w3.org/Graphics/SVG/1.1/DTD/svg11.dtd">
<svg version="1.1" id="Layer_1" xmlns="http://www.w3.org/2000/svg" xmlns:xlink="http://www.w3.org/1999/xlink" x="0px" y="0px"
         width="32px" height="39px" viewBox="0 0 32 39" enable-background="new 0 0 32 39" xml:space="preserve">
<path fill="#1682C9" d="M6.098,25.81C3.571,23.281,1.997,19.752,2,15.885c-0.003-3.87,1.571-7.396,4.098-9.93
        C8.624,3.419,12.14,1.844,16,1.845c3.855-0.002,7.375,1.573,9.9,4.11c2.525,2.534,4.1,6.06,4.1,9.93c0,3.868-1.573,7.397-4.1,9.927
        c-2.526,2.537-6.045,4.113-9.9,4.113h-0.006C12.138,29.924,8.623,28.349,6.098,25.81 M9.916,9.785
        c-1.562,1.568-2.517,3.706-2.519,6.1c0.002,2.391,0.958,4.531,2.519,6.102c1.566,1.561,3.698,2.521,6.084,2.523
        c2.383-0.002,4.516-0.963,6.082-2.523c1.559-1.57,2.518-3.711,2.52-6.102c-0.002-2.393-0.961-4.53-2.52-6.1
        c-1.566-1.565-3.7-2.526-6.082-2.526C13.614,7.259,11.482,8.219,9.916,9.785"/>
<rect x="5.633" y="31.74" fill="#3F9D38" width="20.734" height="5.414"/>
</svg>